# xmcd
#
# Track frame offsets:
#	150
#	10881
#	25863
#	46486
#	60279
#	73824
#	87851
#	106855
#	119956
#	137353
#	148495
#	165095
#	179567
#
# Disc length: 2657 seconds
#
# Revision: 0
# Processed by: cddbd v1.5.2PL0 Copyright (c) Steve Scherf et al.
# Submitted via: audiograbber 1.83.01
#
DISCID=b20a5f0d
DTITLE=Dalena Ditto - Walk On Water
DYEAR=2002
DGENRE=Country
TTITLE0=I'm Having Dreams
TTITLE1=Don't Fall In Love
TTITLE2=Walk On Water
TTITLE3=Nowhere Night
TTITLE4=Why Start Now
TTITLE5=Fresh Outta Teardrops
TTITLE6=Someone Who
TTITLE7=You Better Straighten Up and Love Right
TTITLE8=Me And The Steel Guitar
TTITLE9=Trouble Free
TTITLE10=Bein' With
TTITLE11=In The Palm Of Your Hand
TTITLE12=What Color Am I
EXTD=
EXTT0=
EXTT1=
EXTT2=
EXTT3=
EXTT4=
EXTT5=
EXTT6=
EXTT7=
EXTT8=
EXTT9=
EXTT10=
EXTT11=
EXTT12=
PLAYORDER=
